<mxfile host="app.diagrams.net" modified="2021-08-18T23:08:30.000Z" agent="5.0 (Macintosh; Intel Mac OS X 10_15_7) AppleWebKit/537.36 (KHTML, like Gecko) Chrome/92.0.4515.131 Safari/537.36" etag="JSXcwvZIh_g8m5nt6zWz" version="14.9.6" type="github">
  <diagram id="56uQIisAHpD4wmqoGVId" name="Page-1">
    <mxGraphModel dx="1113" dy="731" grid="0" gridSize="10" guides="1" tooltips="1" connect="1" arrows="1" fold="1" page="1" pageScale="1" pageWidth="1920" pageHeight="1200" math="0" shadow="0">
      <root>
        <mxCell id="0" />
        <mxCell id="1" parent="0" />
        <mxCell id="UomPi5LxQTnba86tYZdN-3" value="" style="ellipse;whiteSpace=wrap;html=1;aspect=fixed;fillColor=none;" vertex="1" parent="1">
          <mxGeometry x="573" y="287" width="709" height="709" as="geometry" />
        </mxCell>
        <mxCell id="UomPi5LxQTnba86tYZdN-1" value="" style="fontColor=#0066CC;verticalAlign=top;verticalLabelPosition=bottom;labelPosition=center;align=center;html=1;outlineConnect=0;fillColor=#CCCCCC;strokeColor=#6881B3;gradientColor=none;gradientDirection=north;strokeWidth=2;shape=mxgraph.networks.radio_tower;" vertex="1" parent="1">
          <mxGeometry x="900" y="591.5" width="55" height="100" as="geometry" />
        </mxCell>
        <mxCell id="UomPi5LxQTnba86tYZdN-2" value="" style="shape=image;html=1;verticalAlign=top;verticalLabelPosition=bottom;labelBackgroundColor=#ffffff;imageAspect=0;aspect=fixed;image=https://cdn4.iconfinder.com/data/icons/transportation-and-vehicle/128/Transportation_And_Vehicle_3-03-128.png" vertex="1" parent="1">
          <mxGeometry x="817" y="838" width="128" height="128" as="geometry" />
        </mxCell>
        <mxCell id="UomPi5LxQTnba86tYZdN-5" value="" style="rounded=0;whiteSpace=wrap;html=1;fillColor=#fff2cc;strokeColor=#d6b656;" vertex="1" parent="1">
          <mxGeometry x="423" y="773" width="394" height="107" as="geometry" />
        </mxCell>
        <mxCell id="UomPi5LxQTnba86tYZdN-6" value="" style="rounded=0;whiteSpace=wrap;html=1;fillColor=none;" vertex="1" parent="1">
          <mxGeometry x="421" y="529" width="397" height="169.5" as="geometry" />
        </mxCell>
        <mxCell id="UomPi5LxQTnba86tYZdN-7" value="Vehicle&#39;s Network (Local)" style="text;html=1;strokeColor=none;fillColor=none;align=center;verticalAlign=middle;whiteSpace=wrap;rounded=0;" vertex="1" parent="1">
          <mxGeometry x="666" y="860" width="151" height="20" as="geometry" />
        </mxCell>
        <mxCell id="UomPi5LxQTnba86tYZdN-9" value="5G&#39;s Network (global)" style="text;html=1;strokeColor=none;fillColor=none;align=center;verticalAlign=middle;whiteSpace=wrap;rounded=0;" vertex="1" parent="1">
          <mxGeometry x="422" y="529" width="151" height="20" as="geometry" />
        </mxCell>
        <mxCell id="UomPi5LxQTnba86tYZdN-14" style="edgeStyle=orthogonalEdgeStyle;rounded=0;orthogonalLoop=1;jettySize=auto;html=1;" edge="1" parent="1" source="UomPi5LxQTnba86tYZdN-10" target="UomPi5LxQTnba86tYZdN-11">
          <mxGeometry relative="1" as="geometry" />
        </mxCell>
        <mxCell id="UomPi5LxQTnba86tYZdN-10" value="Destination, velocity, Type of vehicles, etc.." style="rounded=0;whiteSpace=wrap;html=1;fillColor=#d5e8d4;strokeColor=#82b366;" vertex="1" parent="1">
          <mxGeometry x="429" y="838" width="248" height="26" as="geometry" />
        </mxCell>
        <mxCell id="UomPi5LxQTnba86tYZdN-15" style="edgeStyle=orthogonalEdgeStyle;rounded=0;orthogonalLoop=1;jettySize=auto;html=1;entryX=0.5;entryY=1;entryDx=0;entryDy=0;fillColor=#d80073;strokeColor=#A50040;strokeWidth=3;" edge="1" parent="1" source="UomPi5LxQTnba86tYZdN-11" target="UomPi5LxQTnba86tYZdN-12">
          <mxGeometry relative="1" as="geometry" />
        </mxCell>
        <mxCell id="UomPi5LxQTnba86tYZdN-11" value="Hidden Layer 1" style="rounded=0;whiteSpace=wrap;html=1;fillColor=#dae8fc;strokeColor=#6c8ebf;" vertex="1" parent="1">
          <mxGeometry x="429" y="791" width="248" height="26" as="geometry" />
        </mxCell>
        <mxCell id="UomPi5LxQTnba86tYZdN-12" value="Hidden Layer 2" style="rounded=0;whiteSpace=wrap;html=1;fillColor=none;" vertex="1" parent="1">
          <mxGeometry x="429" y="661" width="248" height="26" as="geometry" />
        </mxCell>
        <mxCell id="UomPi5LxQTnba86tYZdN-27" style="edgeStyle=orthogonalEdgeStyle;rounded=0;orthogonalLoop=1;jettySize=auto;html=1;entryX=0.5;entryY=0;entryDx=0;entryDy=0;fillColor=#d80073;strokeColor=#A50040;strokeWidth=3;" edge="1" parent="1" source="UomPi5LxQTnba86tYZdN-13" target="UomPi5LxQTnba86tYZdN-18">
          <mxGeometry relative="1" as="geometry" />
        </mxCell>
        <mxCell id="UomPi5LxQTnba86tYZdN-35" style="edgeStyle=orthogonalEdgeStyle;rounded=0;orthogonalLoop=1;jettySize=auto;html=1;strokeWidth=3;fillColor=#0050ef;strokeColor=#001DBC;" edge="1" parent="1" source="UomPi5LxQTnba86tYZdN-13" target="UomPi5LxQTnba86tYZdN-30">
          <mxGeometry relative="1" as="geometry">
            <Array as="points">
              <mxPoint x="553" y="559" />
              <mxPoint x="976" y="559" />
            </Array>
          </mxGeometry>
        </mxCell>
        <mxCell id="UomPi5LxQTnba86tYZdN-36" style="edgeStyle=orthogonalEdgeStyle;rounded=0;orthogonalLoop=1;jettySize=auto;html=1;entryX=0;entryY=0.5;entryDx=0;entryDy=0;strokeWidth=3;fillColor=#008a00;strokeColor=#005700;" edge="1" parent="1" source="UomPi5LxQTnba86tYZdN-13" target="UomPi5LxQTnba86tYZdN-31">
          <mxGeometry relative="1" as="geometry">
            <Array as="points">
              <mxPoint x="553" y="559" />
              <mxPoint x="975" y="559" />
              <mxPoint x="975" y="642" />
            </Array>
          </mxGeometry>
        </mxCell>
        <mxCell id="UomPi5LxQTnba86tYZdN-13" value="Hidden Layer K" style="rounded=0;whiteSpace=wrap;html=1;fillColor=none;" vertex="1" parent="1">
          <mxGeometry x="429" y="576" width="248" height="26" as="geometry" />
        </mxCell>
        <mxCell id="UomPi5LxQTnba86tYZdN-17" value="" style="endArrow=none;dashed=1;html=1;dashPattern=1 3;strokeWidth=2;" edge="1" parent="1">
          <mxGeometry width="50" height="50" relative="1" as="geometry">
            <mxPoint x="552.5" y="656" as="sourcePoint" />
            <mxPoint x="552.5" y="606" as="targetPoint" />
          </mxGeometry>
        </mxCell>
        <mxCell id="UomPi5LxQTnba86tYZdN-18" value="Recommendataion route" style="rounded=0;whiteSpace=wrap;html=1;fillColor=#dae8fc;strokeColor=#6c8ebf;" vertex="1" parent="1">
          <mxGeometry x="686" y="791" width="121" height="26" as="geometry" />
        </mxCell>
        <mxCell id="UomPi5LxQTnba86tYZdN-19" value="" style="shape=image;html=1;verticalAlign=top;verticalLabelPosition=bottom;labelBackgroundColor=#ffffff;imageAspect=0;aspect=fixed;image=https://cdn4.iconfinder.com/data/icons/transportation-and-vehicle/128/Transportation_And_Vehicle_3-03-128.png" vertex="1" parent="1">
          <mxGeometry x="674" y="341" width="128" height="128" as="geometry" />
        </mxCell>
        <mxCell id="UomPi5LxQTnba86tYZdN-22" value="" style="shape=image;html=1;verticalAlign=top;verticalLabelPosition=bottom;labelBackgroundColor=#ffffff;imageAspect=0;aspect=fixed;image=https://cdn0.iconfinder.com/data/icons/isometric-city-basic-transport/480/car-police-front-01-128.png;fillColor=none;" vertex="1" parent="1">
          <mxGeometry x="992" y="322" width="128" height="128" as="geometry" />
        </mxCell>
        <mxCell id="UomPi5LxQTnba86tYZdN-23" value="" style="shape=image;html=1;verticalAlign=top;verticalLabelPosition=bottom;labelBackgroundColor=#ffffff;imageAspect=0;aspect=fixed;image=https://cdn0.iconfinder.com/data/icons/isometric-city-basic-transport/64/truck-front-02-128.png;fillColor=none;" vertex="1" parent="1">
          <mxGeometry x="1038" y="755" width="128" height="128" as="geometry" />
        </mxCell>
        <mxCell id="UomPi5LxQTnba86tYZdN-24" value="" style="shape=image;html=1;verticalAlign=top;verticalLabelPosition=bottom;labelBackgroundColor=#ffffff;imageAspect=0;aspect=fixed;image=https://cdn4.iconfinder.com/data/icons/transportation-and-vehicle/128/Transportation_And_Vehicle_3-11-128.png;fillColor=none;" vertex="1" parent="1">
          <mxGeometry x="875" y="415" width="128" height="128" as="geometry" />
        </mxCell>
        <mxCell id="UomPi5LxQTnba86tYZdN-25" value="" style="shape=image;html=1;verticalAlign=top;verticalLabelPosition=bottom;labelBackgroundColor=#ffffff;imageAspect=0;aspect=fixed;image=https://cdn4.iconfinder.com/data/icons/transportation-and-vehicle/128/Transportation_And_Vehicle_3-03-128.png" vertex="1" parent="1">
          <mxGeometry x="1133" y="519" width="128" height="128" as="geometry" />
        </mxCell>
        <mxCell id="UomPi5LxQTnba86tYZdN-33" style="edgeStyle=orthogonalEdgeStyle;rounded=0;orthogonalLoop=1;jettySize=auto;html=1;entryX=0.25;entryY=1;entryDx=0;entryDy=0;fillColor=#0050ef;strokeColor=#001DBC;strokeWidth=3;" edge="1" parent="1" source="UomPi5LxQTnba86tYZdN-30" target="UomPi5LxQTnba86tYZdN-12">
          <mxGeometry relative="1" as="geometry" />
        </mxCell>
        <mxCell id="UomPi5LxQTnba86tYZdN-30" value="Vehicle&#39;s Network (Local)" style="text;html=1;fillColor=#fff2cc;align=center;verticalAlign=middle;whiteSpace=wrap;rounded=0;strokeColor=#d6b656;strokeWidth=3;" vertex="1" parent="1">
          <mxGeometry x="885" y="740" width="151" height="20" as="geometry" />
        </mxCell>
        <mxCell id="UomPi5LxQTnba86tYZdN-32" style="edgeStyle=orthogonalEdgeStyle;rounded=0;orthogonalLoop=1;jettySize=auto;html=1;entryX=0.75;entryY=1;entryDx=0;entryDy=0;fillColor=#008a00;strokeColor=#005700;strokeWidth=3;" edge="1" parent="1" source="UomPi5LxQTnba86tYZdN-31" target="UomPi5LxQTnba86tYZdN-12">
          <mxGeometry relative="1" as="geometry">
            <Array as="points">
              <mxPoint x="1123" y="720" />
              <mxPoint x="615" y="720" />
            </Array>
          </mxGeometry>
        </mxCell>
        <mxCell id="UomPi5LxQTnba86tYZdN-31" value="Vehicle&#39;s Network (Local)" style="text;html=1;fillColor=#fff2cc;align=center;verticalAlign=middle;whiteSpace=wrap;rounded=0;strokeColor=#d6b656;strokeWidth=3;" vertex="1" parent="1">
          <mxGeometry x="1047" y="631.5" width="151" height="20" as="geometry" />
        </mxCell>
      </root>
    </mxGraphModel>
  </diagram>
</mxfile>
